<?xml version="1.0" encoding="UTF-8" standalone="no"?>
<!DOCTYPE svg PUBLIC "-//W3C//DTD SVG 1.1//EN" "http://www.w3.org/Graphics/SVG/1.1/DTD/svg11.dtd">
<svg width="100%" height="100%" viewBox="0 0 866 683" version="1.1" xmlns="http://www.w3.org/2000/svg" xmlns:xlink="http://www.w3.org/1999/xlink" xml:space="preserve" xmlns:serif="http://www.serif.com/" style="fill-rule:evenodd;clip-rule:evenodd;stroke-miterlimit:10;">
    <path d="M721.56,106.21C721.56,97.308 714.332,90.08 705.43,90.08L72.38,90.08C63.478,90.08 56.25,97.308 56.25,106.21L56.25,484.4C56.25,493.302 63.478,500.53 72.38,500.53L705.43,500.53C714.332,500.53 721.56,493.302 721.56,484.4L721.56,106.21Z" style="fill:rgb(63,67,71);"/>
    <path d="M706.43,114.41C706.43,107.782 701.048,102.4 694.42,102.4L83.4,102.4C76.772,102.4 71.39,107.782 71.39,114.41L71.39,476.2C71.39,482.828 76.772,488.21 83.4,488.21L694.42,488.21C701.048,488.21 706.43,482.828 706.43,476.2L706.43,114.41Z" style="fill:rgb(235,235,235);stroke:black;stroke-width:1px;"/>
    <path d="M313.22,48C313.22,38.971 305.889,31.64 296.86,31.64L126.12,31.64C117.091,31.64 109.76,38.971 109.76,48L109.76,306.75C109.76,315.779 117.091,323.11 126.12,323.11L296.86,323.11C305.889,323.11 313.22,315.779 313.22,306.75L313.22,48Z" style="fill:rgb(204,204,204);"/>
    <path d="M301.97,59.97C301.97,50.941 294.639,43.61 285.61,43.61L137.39,43.61C128.361,43.61 121.03,50.941 121.03,59.97L121.03,293.37C121.03,302.399 128.361,309.73 137.39,309.73L285.61,309.73C294.639,309.73 301.97,302.399 301.97,293.37L301.97,59.97Z" style="fill:rgb(179,179,179);"/>
    <path d="M294.21,100.68C294.21,93.273 288.197,87.26 280.79,87.26L142.89,87.26C135.483,87.26 129.47,93.273 129.47,100.68L129.47,289.98C129.47,297.387 135.483,303.4 142.89,303.4L280.79,303.4C288.197,303.4 294.21,297.387 294.21,289.98L294.21,100.68Z" style="fill:none;stroke:white;stroke-width:1px;"/>
    <path d="M268.17,59.1C268.17,57.157 266.593,55.58 264.65,55.58L140.74,55.58C138.797,55.58 137.22,57.157 137.22,59.1C137.22,61.043 138.797,62.62 140.74,62.62L264.65,62.62C266.593,62.62 268.17,61.043 268.17,59.1Z" style="fill:white;"/>
    <path d="M268.17,75.29C268.17,73.347 266.593,71.77 264.65,71.77L156.93,71.77C154.987,71.77 153.41,73.347 153.41,75.29C153.41,77.233 154.987,78.81 156.93,78.81L264.65,78.81C266.593,78.81 268.17,77.233 268.17,75.29Z" style="fill:white;"/>
    <path d="M268.17,375.21C268.17,373.267 266.593,371.69 264.65,371.69L140.74,371.69C138.797,371.69 137.22,373.267 137.22,375.21C137.22,377.153 138.797,378.73 140.74,378.73L264.65,378.73C266.593,378.73 268.17,377.153 268.17,375.21Z" style="fill:none;stroke:black;stroke-width:1px;"/>
    <path d="M268.17,391.4C268.17,389.457 266.593,387.88 264.65,387.88L156.93,387.88C154.987,387.88 153.41,389.457 153.41,391.4C153.41,393.343 154.987,394.92 156.93,394.92L264.65,394.92C266.593,394.92 268.17,393.343 268.17,391.4Z" style="fill:none;stroke:black;stroke-width:1px;"/>
    <path d="M129.47,107.22L294.22,107.22" style="fill:none;fill-rule:nonzero;stroke:white;stroke-width:1px;"/>
    <path d="M125.89,349.16L297.1,349.16C305.949,349.16 313.23,356.441 313.23,365.29L313.23,487.85L109.76,487.85L109.76,365.29C109.76,356.441 117.041,349.16 125.89,349.16Z" style="fill:rgb(0,113,242);fill-rule:nonzero;"/>
    <path d="M138.88,361.13L284.11,361.13C284.123,361.13 284.137,361.13 284.15,361.13C293.942,361.13 302,369.188 302,378.98C302,378.987 302,378.993 302,379L302,487.85L121,487.85L121,379C121,378.993 121,378.987 121,378.98C121,369.188 129.058,361.13 138.85,361.13C138.86,361.13 138.87,361.13 138.88,361.13Z" style="fill:white;fill-opacity:0.3;fill-rule:nonzero;"/>
    <path d="M129.47,488.21L129.47,410.56C129.475,407.391 132.081,404.785 135.25,404.78L285.62,404.78C288.791,404.78 291.4,407.389 291.4,410.56L291.4,488.21" style="fill:none;fill-rule:nonzero;stroke:white;stroke-width:1px;"/>
    <path d="M129.47,423.13L291.4,423.13" style="fill:none;fill-rule:nonzero;stroke:white;stroke-width:1px;"/>
    <path d="M211.49,488.21L211.49,444.87C211.49,444.87 211.49,444.869 211.49,444.869C211.49,442.998 209.951,441.459 208.08,441.459C208.05,441.459 208.02,441.459 207.99,441.46C197.89,441.74 168.73,446.26 157.38,487.85L211.49,488.21Z" style="fill:white;fill-opacity:0.3;fill-rule:nonzero;"/>
    <path d="M217.24,480.27L224.4,439.07C224.881,436.333 227.506,434.462 230.25,434.9C239.44,436.36 258.41,441.65 262.87,460.56C263.409,462.977 262.213,465.469 259.99,466.56L223.14,484.65C221.819,485.301 220.245,485.198 219.02,484.38C217.673,483.48 216.975,481.868 217.24,480.27Z" style="fill:white;fill-opacity:0.3;fill-rule:nonzero;"/>
    <path d="M235.78,487.85L262.6,479.55C262.875,479.469 263.16,479.428 263.447,479.428C264.823,479.428 266.031,480.374 266.36,481.71C266.881,483.871 266.724,486.141 265.91,488.21L235.78,487.85Z" style="fill:white;fill-opacity:0.3;fill-rule:nonzero;"/>
    <path d="M684.96,74.91C684.96,70.456 681.344,66.84 676.89,66.84L357.91,66.84C353.456,66.84 349.84,70.456 349.84,74.91L349.84,197.46C349.84,201.914 353.456,205.53 357.91,205.53L676.89,205.53C681.344,205.53 684.96,201.914 684.96,197.46L684.96,74.91Z" style="fill:rgb(0,113,242);"/>
    <rect x="356.88" y="72.12" width="321.04" height="128.13" style="fill:white;fill-opacity:0.3;"/>
    <rect x="368.84" y="131.61" width="16.9" height="59.14" style="fill:white;fill-opacity:0.3;"/>
    <rect x="420.94" y="100.64" width="16.9" height="90.12" style="fill:white;fill-opacity:0.3;"/>
    <rect x="473.75" y="113.31" width="16.9" height="77.44" style="fill:white;fill-opacity:0.3;"/>
    <rect x="500.5" y="127.39" width="16.9" height="64.07" style="fill:white;fill-opacity:0.3;"/>
    <rect x="525.14" y="141.47" width="16.9" height="49.99" style="fill:white;fill-opacity:0.3;"/>
    <rect x="552.6" y="84.44" width="16.9" height="107.01" style="fill:white;fill-opacity:0.3;"/>
    <rect x="579.35" y="93.6" width="16.9" height="97.86" style="fill:white;fill-opacity:0.3;"/>
    <rect x="604.7" y="111.9" width="16.9" height="79.56" style="fill:white;fill-opacity:0.3;"/>
    <rect x="630.74" y="171.04" width="16.9" height="20.42" style="fill:white;fill-opacity:0.3;"/>
    <rect x="657.5" y="133.73" width="16.9" height="57.73" style="fill:white;fill-opacity:0.3;"/>
    <rect x="395.6" y="152.74" width="16.9" height="38.02" style="fill:white;fill-opacity:0.3;"/>
    <rect x="447.7" y="169.63" width="16.9" height="21.12" style="fill:white;fill-opacity:0.3;"/>
    <path d="M684.96,247.58C684.96,241.47 680,236.51 673.89,236.51L360.91,236.51C354.8,236.51 349.84,241.47 349.84,247.58L349.84,370.47C349.84,376.58 354.8,381.54 360.91,381.54L673.89,381.54C680,381.54 684.96,376.58 684.96,370.47L684.96,247.58Z" style="fill:rgb(204,204,204);"/>
    <rect x="356.88" y="243.56" width="322.45" height="129.54" style="fill:rgb(179,179,179);"/>
    <path d="M447.69,345.99C447.69,342.69 445.01,340.01 441.71,340.01L386.79,340.01C383.49,340.01 380.81,342.69 380.81,345.99L380.81,346C380.81,349.3 383.49,351.98 386.79,351.98L441.71,351.98C445.01,351.98 447.69,349.3 447.69,346L447.69,345.99Z" style="fill:white;"/>
    <path d="M529.36,345.99C529.36,342.69 526.68,340.01 523.38,340.01L468.46,340.01C465.16,340.01 462.48,342.69 462.48,345.99L462.48,346C462.48,349.3 465.16,351.98 468.46,351.98L523.38,351.98C526.68,351.98 529.36,349.3 529.36,346L529.36,345.99Z" style="fill:white;"/>
    <path d="M613.6,346.32C613.6,343.003 610.907,340.31 607.59,340.31L552.46,340.31C549.143,340.31 546.45,343.003 546.45,346.32C546.45,349.637 549.143,352.33 552.46,352.33L607.59,352.33C610.907,352.33 613.6,349.637 613.6,346.32Z" style="fill:white;"/>
    <circle cx="412.49" cy="292.13" r="33.09" style="fill:rgb(204,204,204);"/>
    <path d="M432.44,286.06C433.056,288.072 433.369,290.165 433.369,292.27C433.369,303.905 423.795,313.48 412.159,313.48C400.524,313.48 390.949,303.905 390.949,292.27C390.949,280.638 400.518,271.065 412.15,271.06C412.74,271.06 413.33,271.06 413.91,271.13L413.91,264.75C413.33,264.75 412.74,264.7 412.15,264.7C397.048,264.708 384.625,277.138 384.625,292.24C384.625,307.348 397.057,319.78 412.165,319.78C427.273,319.78 439.705,307.348 439.705,292.24C439.705,288.984 439.128,285.754 438,282.7L432.44,286.06Z" style="fill:white;fill-rule:nonzero;"/>
    <circle cx="579.35" cy="293.54" r="33.09" style="fill:rgb(204,204,204);"/>
    <path d="M596.74,305.76C592.78,311.462 586.262,314.87 579.32,314.87C567.685,314.87 558.11,305.295 558.11,293.66C558.11,282.025 567.685,272.45 579.32,272.45C579.323,272.45 579.327,272.45 579.33,272.45C579.92,272.45 580.51,272.45 581.09,272.52L581.09,266.15C580.51,266.15 579.92,266.09 579.33,266.09C579.326,266.09 579.322,266.09 579.318,266.09C564.194,266.09 551.748,278.536 551.748,293.66C551.748,308.784 564.194,321.23 579.318,321.23C587.929,321.23 596.06,317.196 601.27,310.34L596.74,305.76Z" style="fill:white;fill-rule:nonzero;"/>
    <circle cx="495.57" cy="292.13" r="33.09" style="fill:rgb(204,204,204);"/>
    <path d="M506.66,310.31C503.331,312.344 499.504,313.42 495.603,313.42C483.968,313.42 474.393,303.845 474.393,292.21C474.393,280.591 483.941,271.024 495.56,271L497.12,271L497.12,264.63L495.55,264.63C495.546,264.63 495.541,264.63 495.537,264.63C480.413,264.63 467.967,277.076 467.967,292.2C467.967,307.324 480.413,319.77 495.537,319.77C500.561,319.77 505.49,318.397 509.79,315.8L506.66,310.31Z" style="fill:white;fill-rule:nonzero;"/>
    <path d="M357.91,398.44L676.91,398.44C681.337,398.44 684.98,402.083 684.98,406.51L684.98,487.85L349.84,487.85L349.84,406.51C349.84,402.083 353.483,398.44 357.91,398.44Z" style="fill:rgb(0,113,242);fill-rule:nonzero;"/>
    <rect x="356.88" y="406.89" width="322.45" height="80.96" style="fill:white;fill-opacity:0.3;"/>
    <rect x="438.54" y="422.38" width="71.11" height="5.63" style="fill:white;fill-opacity:0.3;"/>
    <rect x="411.09" y="440.68" width="98.56" height="5.63" style="fill:white;fill-opacity:0.3;"/>
    <rect x="389.26" y="449.13" width="120.39" height="5.63" style="fill:white;fill-opacity:0.3;"/>
    <rect x="375.18" y="457.58" width="134.47" height="5.63" style="fill:white;fill-opacity:0.3;"/>
    <rect x="447.7" y="466.03" width="61.95" height="5.63" style="fill:white;fill-opacity:0.3;"/>
    <rect x="429.39" y="474.48" width="80.26" height="5.63" style="fill:white;fill-opacity:0.3;"/>
    <rect x="412.49" y="483.63" width="97.16" height="4.22" style="fill:white;fill-opacity:0.3;"/>
    <rect x="485.01" y="431.53" width="24.64" height="5.63" style="fill:white;fill-opacity:0.3;"/>
    <g transform="matrix(-1,7.65714e-16,-7.65714e-16,-1,1125.61,850.39)">
        <rect x="527.25" y="422.38" width="71.11" height="5.63" style="fill:white;fill-opacity:0.3;"/>
    </g>
    <g transform="matrix(-1,7.65714e-16,-7.65714e-16,-1,1153.07,887)">
        <rect x="527.25" y="440.68" width="98.56" height="5.63" style="fill:white;fill-opacity:0.3;"/>
    </g>
    <g transform="matrix(-1,7.65714e-16,-7.65714e-16,-1,1174.89,903.9)">
        <rect x="527.25" y="449.13" width="120.39" height="5.63" style="fill:white;fill-opacity:0.3;"/>
    </g>
    <g transform="matrix(-1,7.65714e-16,-7.65714e-16,-1,1188.97,920.79)">
        <rect x="527.25" y="457.58" width="134.47" height="5.63" style="fill:white;fill-opacity:0.3;"/>
    </g>
    <g transform="matrix(-1,7.65714e-16,-7.65714e-16,-1,1116.46,937.69)">
        <rect x="527.25" y="466.03" width="61.95" height="5.63" style="fill:white;fill-opacity:0.3;"/>
    </g>
    <g transform="matrix(-1,7.65714e-16,-7.65714e-16,-1,1134.76,954.59)">
        <rect x="527.25" y="474.48" width="80.26" height="5.63" style="fill:white;fill-opacity:0.3;"/>
    </g>
    <g transform="matrix(-1,7.65714e-16,-7.65714e-16,-1,1151.66,971.48)">
        <rect x="527.25" y="483.63" width="97.16" height="4.22" style="fill:white;fill-opacity:0.3;"/>
    </g>
    <g transform="matrix(-1,7.65714e-16,-7.65714e-16,-1,1079.14,868.7)">
        <rect x="527.25" y="431.53" width="24.64" height="5.63" style="fill:white;fill-opacity:0.3;"/>
    </g>
    <path d="M238.06,244.8L247.57,247.31L251.72,231.55L242,229C242.291,222.915 241.221,216.84 238.87,211.22L248.08,205.54L239.53,191.66L229.72,197.66C226.327,194.341 222.386,191.634 218.07,189.66L221.2,177.81L205.44,173.65L202.19,186C196.989,185.828 191.803,186.649 186.91,188.42L181.65,179.24L167.51,187.34L172.98,196.9C169.392,200.221 166.425,204.156 164.22,208.52L154.48,205.95L150.33,221.71L159.86,224.23C159.495,229.445 160.126,234.682 161.72,239.66L151,246.26L159.55,260.14L169.73,253.86C173.086,257.794 177.158,261.055 181.73,263.47L178.88,274.27L194.64,278.44L197.38,268.06C202.587,268.524 207.836,267.984 212.84,266.47L217.76,275.07L231.91,266.97L227.2,258.75C231.795,254.949 235.502,250.187 238.06,244.8Z" style="fill:rgb(204,204,204);fill-rule:nonzero;"/>
    <path d="M210.91,201.18C221.078,205.22 227.788,215.107 227.788,226.049C227.788,240.729 215.708,252.809 201.028,252.809C186.348,252.809 174.268,240.729 174.268,226.049C174.268,215.316 180.725,205.578 190.61,201.4" style="fill:none;fill-rule:nonzero;stroke:white;stroke-width:1px;stroke-linecap:round;stroke-linejoin:round;stroke-miterlimit:4;"/>
    <circle cx="201.05" cy="226.05" r="9.86" style="fill:none;stroke:white;stroke-width:1px;stroke-linecap:round;stroke-linejoin:round;stroke-miterlimit:4;"/>
    <path d="M263.27,158.56L268.27,159.86L270.43,151.65L265.37,150.31C265.519,147.14 264.958,143.976 263.73,141.05L268.54,138.05L264,130.86L258.92,134C257.156,132.264 255.101,130.849 252.85,129.82L254.48,123.64L246.27,121.47L244.58,127.88C241.857,127.787 239.142,128.214 236.58,129.14L233.85,124.36L226.47,128.58L229.33,133.58C227.453,135.308 225.905,137.361 224.76,139.64L219.68,138.3L217.52,146.51L222.52,147.82C222.335,150.543 222.675,153.275 223.52,155.87L217.9,159.33L222.36,166.56L227.67,163.29C229.424,165.34 231.552,167.037 233.94,168.29L232.45,173.91L240.66,176.08L242.09,170.68C244.805,170.92 247.541,170.638 250.15,169.85L252.71,174.33L260.09,170.11L257.63,165.82C260.014,163.838 261.939,161.36 263.27,158.56Z" style="fill:rgb(204,204,204);fill-rule:nonzero;"/>
    <path d="M249.12,135.82C254.425,137.924 257.926,143.08 257.926,148.787C257.926,156.44 251.629,162.737 243.976,162.737C236.324,162.737 230.026,156.44 230.026,148.787C230.026,143.194 233.39,138.119 238.54,135.94" style="fill:none;fill-rule:nonzero;stroke:white;stroke-width:1px;stroke-linecap:round;stroke-linejoin:round;stroke-miterlimit:4;"/>
    <circle cx="243.98" cy="148.78" r="5.14" style="fill:none;stroke:white;stroke-width:1px;stroke-linecap:round;stroke-linejoin:round;stroke-miterlimit:4;"/>
</svg>
