<?xml version="1.0" encoding="UTF-8" standalone="no"?>
<!DOCTYPE svg PUBLIC "-//W3C//DTD SVG 1.1//EN" "http://www.w3.org/Graphics/SVG/1.1/DTD/svg11.dtd">
<svg width="100%" height="100%" viewBox="0 0 866 683" version="1.1" xmlns="http://www.w3.org/2000/svg" xmlns:xlink="http://www.w3.org/1999/xlink" xml:space="preserve" xmlns:serif="http://www.serif.com/" style="fill-rule:evenodd;clip-rule:evenodd;stroke-miterlimit:10;">
    <g transform="matrix(1,0,0,1,432.88,341.45)">
        <text x="0px" y="0px" style="font-family:'LucidaGrande', 'Lucida Grande', sans-serif;font-weight:500;font-size:12px;">P</text>
        <g transform="matrix(1,0,0,1,6.08,0)">
            <text x="0px" y="0px" style="font-family:'LucidaGrande', 'Lucida Grande', sans-serif;font-weight:500;font-size:12px;">omodo</text>
        </g>
        <g transform="matrix(1,0,0,1,42.62,0)">
            <text x="0px" y="0px" style="font-family:'LucidaGrande', 'Lucida Grande', sans-serif;font-weight:500;font-size:12px;">r</text>
        </g>
        <g transform="matrix(1,0,0,1,46.43,0)">
            <text x="0px" y="0px" style="font-family:'LucidaGrande', 'Lucida Grande', sans-serif;font-weight:500;font-size:12px;">o</text>
        </g>
        <g transform="matrix(1,0,0,1,55.56,0)">
            <text x="0px" y="0px" style="font-family:'LucidaGrande', 'Lucida Grande', sans-serif;font-weight:500;font-size:12px;">t</text>
        </g>
        <g transform="matrix(1,0,0,1,59.46,0)">
            <text x="0px" y="0px" style="font-family:'LucidaGrande', 'Lucida Grande', sans-serif;font-weight:500;font-size:12px;">echnique</text>
        </g>
    </g>
    <path d="M275.7,580.61L824.86,580.61L824.86,592.87C824.86,592.883 824.86,592.897 824.86,592.91C824.86,600.64 818.5,607 810.77,607L275.7,607L275.7,580.61Z" style="fill:rgb(144,144,145);fill-rule:nonzero;"/>
    <path d="M727.34,433.26L694.92,575.81L616.56,575.81L625.38,415.58L714.05,415.58C721.669,416.003 727.708,422.387 727.708,430.018C727.708,431.109 727.585,432.197 727.34,433.26Z" style="fill:rgb(63,67,71);fill-rule:nonzero;"/>
    <path d="M727.34,433.26L694.92,575.81L666.31,575.81L701.41,426.81C702.113,423.742 703.781,420.979 706.17,418.93C708.388,417.039 711.145,415.891 714.05,415.65C721.662,416.081 727.692,422.462 727.692,430.087C727.692,431.154 727.574,432.219 727.34,433.26Z" style="fill:rgb(46,49,53);fill-rule:nonzero;"/>
    <path d="M616.56,575.81L653.68,575.81C653.68,575.81 662.11,523.81 651.07,499.93L616.56,575.81Z" style="fill:rgb(46,49,53);fill-rule:nonzero;"/>
    <path d="M526.54,271.21L556.4,271.21" style="fill:none;fill-rule:nonzero;stroke:rgb(204,204,204);stroke-width:4px;"/>
    <path d="M431.33,316.85C431.33,316.85 418.58,339 410,382.31C410,382.31 401.28,430.19 399.09,473.22C399.09,473.22 393.51,553.01 393.25,563.54L393.25,576.34L467,576.34L474,571.82L477.64,526.66L478.4,429.99C478.4,429.99 477.68,375.44 490.77,332.23L467,328.68L448,323.28L431.33,316.85Z" style="fill:rgb(230,230,230);fill-rule:nonzero;"/>
    <path d="M409.8,257C409.8,257 368.39,299 392.23,330.4C392.23,330.4 416.46,312.71 436.23,308C435.899,306.294 435.659,304.571 435.51,302.84L435.51,284.45C435.51,284.45 418.64,281.44 409.8,257Z" style="fill:rgb(12,34,59);fill-rule:nonzero;"/>
    <path d="M396.06,224.22L410.44,220.07C410.544,220.041 410.652,220.026 410.76,220.026C411.36,220.026 411.872,220.476 411.95,221.07C412.045,221.667 411.679,222.248 411.1,222.42L396.45,226.63L396.06,224.22Z" style="fill:rgb(101,128,236);fill-rule:nonzero;"/>
    <ellipse cx="409.67" cy="234.39" rx="13.8" ry="13.99" style="fill:rgb(242,150,129);"/>
    <path d="M491.1,235.33L491.1,301.33C491.1,316.575 478.555,329.119 463.31,329.119C448.627,329.119 436.348,317.482 435.56,302.82L435.56,235.33L491.1,235.33Z" style="fill:rgb(249,180,153);fill-rule:nonzero;"/>
    <path d="M479.3,269.32C467.48,303.87 439.55,303.16 435.56,302.87L435.56,278.29L479.3,269.32Z" style="fill:rgb(242,150,129);fill-rule:nonzero;"/>
    <g opacity="0.2">
        <path d="M401.49,324.35C401.419,324.351 401.354,324.312 401.32,324.25C399.109,320.021 397.776,315.388 397.4,310.63C397.088,306.655 397.36,302.656 398.21,298.76C399.033,294.722 400.431,290.822 402.36,287.18C402.392,287.122 402.454,287.086 402.52,287.086C402.621,287.086 402.704,287.169 402.704,287.27C402.704,287.302 402.695,287.333 402.68,287.36C400.78,290.979 399.396,294.847 398.57,298.85C396.635,307.362 397.728,316.287 401.66,324.08C401.704,324.171 401.669,324.282 401.58,324.33C401.553,324.346 401.521,324.353 401.49,324.35Z" style="fill-rule:nonzero;"/>
    </g>
    <path d="M378.68,333.25C378.6,333.255 378.527,333.205 378.5,333.13C378.5,333.02 374.63,322.18 376.5,307.13C377.622,298.238 380.468,289.651 384.88,281.85C390.46,271.85 398.64,262.76 409.19,254.7C409.266,254.63 409.384,254.63 409.46,254.7C409.528,254.773 409.528,254.887 409.46,254.96C385.67,273.13 378.63,293.36 376.91,307.14C375.05,322.06 378.86,332.81 378.91,332.92C378.944,333.016 378.895,333.123 378.8,333.16L378.68,333.25Z" style="fill:rgb(12,34,59);fill-rule:nonzero;"/>
    <path d="M436.28,308C436.28,308 397.69,316.41 362.37,359C362.37,359 331.63,394.75 315.32,453.22L353.71,563.5L393.23,563.5C393.23,563.5 397.75,484.21 400.76,453.97C400.76,454 408.17,353.89 436.28,308Z" style="fill:rgb(101,128,236);fill-rule:nonzero;"/>
    <g opacity="0.2">
        <path d="M318.31,461.33L318.25,461.33C318.174,461.308 318.121,461.237 318.121,461.157C318.121,461.138 318.124,461.118 318.13,461.1C323.307,444.965 329.387,429.133 336.34,413.68C342.278,400.215 349.183,387.198 357,374.73C365.8,361 374.73,350.56 383.56,343.73C383.596,343.694 383.644,343.674 383.695,343.674C383.746,343.674 383.794,343.694 383.83,343.73C383.865,343.764 383.886,343.811 383.886,343.86C383.886,343.909 383.865,343.956 383.83,343.99C363.9,359.46 347.21,390.49 336.71,413.81C329.758,429.249 323.681,445.067 318.51,461.19C318.486,461.279 318.401,461.338 318.31,461.33Z" style="fill-rule:nonzero;"/>
    </g>
    <g opacity="0.2">
        <path d="M395.12,335.51C395.061,335.514 395.004,335.488 394.97,335.44C394.934,335.404 394.914,335.356 394.914,335.305C394.914,335.254 394.934,335.206 394.97,335.17C395.03,335.17 400.28,331.25 407.4,326.94C413.98,322.94 423.54,317.82 431.76,315.85C431.774,315.846 431.789,315.845 431.803,315.845C431.889,315.845 431.963,315.906 431.98,315.99C431.986,316.008 431.989,316.026 431.989,316.045C431.989,316.128 431.931,316.201 431.85,316.22C416.21,319.97 395.41,335.32 395.2,335.47C395.178,335.491 395.15,335.505 395.12,335.51Z" style="fill-rule:nonzero;"/>
    </g>
    <path d="M396.36,329.3C396.31,329.35 391.7,334.3 386.36,344.24C383.062,350.374 380.266,356.765 378,363.35C374.956,372.224 372.684,381.345 371.21,390.61L361,435.35C358.634,442.851 355.688,450.156 352.19,457.2C346.19,469.7 337.7,483.36 327.45,488.01L346.4,542.59C347.84,526.37 349.72,509.557 352.04,492.15C354.473,474.15 357.22,456.843 360.28,440.23L371.55,390.68C375.04,369.07 381.67,353.6 386.61,344.43C391.96,334.49 396.55,329.6 396.61,329.56L396.36,329.3Z" style="fill-opacity:0.2;fill-rule:nonzero;"/>
    <path d="M591.14,359.65C627.58,404.74 645.92,463.92 645.92,463.92C670.39,545.23 621.08,576.22 621.08,576.22L467,576.47C479.54,548.99 457.21,534.06 457.21,534.06L477.66,526.66L478.42,435.19C476.92,385.76 489,338.33 489,338.33C495.59,320.33 491.14,302.07 490.38,301.7C490.34,301.7 552.29,311.59 591.14,359.65Z" style="fill:rgb(101,128,236);fill-rule:nonzero;"/>
    <g opacity="0.2">
        <path d="M495.24,558.21C495.139,558.21 495.055,558.13 495.05,558.03C495.05,558.027 495.05,558.023 495.05,558.02C495.05,557.921 495.131,557.84 495.23,557.84C495.23,557.84 495.23,557.84 495.23,557.84L581,555.51C582.29,555.51 583.59,555.51 584.88,555.58C586.88,555.713 588.853,555.78 590.8,555.78C606.35,555.78 618.38,551.48 626.62,542.96C633.94,535.38 636.82,525.8 637.94,519.1C638.675,514.852 638.903,510.532 638.62,506.23C637.52,462.13 622.14,425.28 609.43,402.13C595.62,377 581.93,362.2 581.8,362.05C581.764,362.014 581.744,361.966 581.744,361.915C581.744,361.864 581.764,361.816 581.8,361.78C581.873,361.712 581.987,361.712 582.06,361.78C582.2,361.93 595.91,376.78 609.71,401.92C617.706,416.44 624.222,431.727 629.16,447.55C635.12,466.555 638.431,486.291 639,506.2C639.277,510.529 639.046,514.875 638.31,519.15C637.638,523.277 636.466,527.306 634.82,531.15C632.92,535.594 630.233,539.659 626.89,543.15C618.58,551.74 606.46,556.08 590.8,556.08C588.873,556.08 586.893,556.017 584.86,555.89C583.58,555.8 582.29,555.78 581.01,555.81L495.28,558.14L495.24,558.21Z" style="fill-rule:nonzero;"/>
    </g>
    <g opacity="0.2">
        <path d="M545.93,427.6C545.839,427.602 545.759,427.539 545.74,427.45C544.185,417.6 544.525,407.543 546.74,397.82C548.695,389.121 552.684,381.009 558.38,374.15C565.31,365.98 574.8,360.03 586.6,356.47C586.699,356.444 586.801,356.502 586.83,356.6C586.836,356.618 586.839,356.638 586.839,356.657C586.839,356.737 586.786,356.808 586.71,356.83C560.16,364.83 550.52,383.59 547.11,397.9C544.901,407.573 544.561,417.58 546.11,427.38C546.128,427.481 546.061,427.58 545.96,427.6L545.93,427.6Z" style="fill-rule:nonzero;"/>
    </g>
    <g opacity="0.2">
        <path d="M576,356.21C575.954,356.224 575.906,356.224 575.86,356.21C557.29,336.98 535.62,325.61 520.71,319.46C511.625,315.608 502.187,312.647 492.53,310.62C492.53,310.62 492.529,310.62 492.529,310.62C492.425,310.62 492.339,310.534 492.339,310.43C492.339,310.326 492.425,310.24 492.529,310.24C492.55,310.24 492.57,310.243 492.59,310.25C502.274,312.283 511.739,315.25 520.85,319.11C530.234,322.976 539.268,327.643 547.85,333.06C558.142,339.542 567.628,347.222 576.11,355.94C576.146,355.976 576.166,356.024 576.166,356.075C576.166,356.126 576.146,356.174 576.11,356.21C576.074,356.221 576.036,356.221 576,356.21Z" style="fill-rule:nonzero;"/>
    </g>
    <path d="M529.11,376.98C529.11,374.695 527.255,372.84 524.97,372.84L501.13,372.84C498.845,372.84 496.99,374.695 496.99,376.98C496.99,379.265 498.845,381.12 501.13,381.12L524.97,381.12C527.255,381.12 529.11,379.265 529.11,376.98Z" style="fill:white;"/>
    <path d="M470.69,563.12C460.32,567.85 447.81,563.04 447.81,563.04L432.68,557.33L418.58,552C416.85,550.801 414.624,550.563 412.68,551.37C408.17,552.5 403.15,553.37 403.15,553.37C400.424,553.894 397.769,554.736 395.24,555.88L382.82,562.28C378.425,564.248 373.346,564.013 369.15,561.65C362.37,566.17 356.85,560.65 356.85,560.65C354.72,563.16 353.47,562.84 353.47,562.84L351.16,556.23L365.38,541.33L359.48,544.97C356.286,547.416 352.248,548.496 348.26,547.97L346.13,541.61L371.28,527.61L393.28,524.73C406.58,522.22 415.28,524.6 415.28,524.6L448.4,533.51C455.05,536.39 457.31,534.01 457.31,534.01C473.66,546.36 470.69,563.12 470.69,563.12Z" style="fill:rgb(249,180,153);fill-rule:nonzero;"/>
    <path d="M470.69,563.12C460.32,567.85 447.81,563.04 447.81,563.04L432.68,557.33L432.62,557.21C458.84,556.64 457.22,534.06 457.22,534.06C473.66,546.36 470.69,563.12 470.69,563.12Z" style="fill:rgb(242,150,129);fill-rule:nonzero;"/>
    <path d="M366.76,540.14C366.724,540.149 366.686,540.149 366.65,540.14C366.582,540.067 366.582,539.953 366.65,539.88C366.71,539.79 372.65,531.52 379.7,530.77L396.84,528C396.86,527.993 396.88,527.99 396.901,527.99C397.005,527.99 397.091,528.076 397.091,528.18C397.091,528.284 397.005,528.37 396.901,528.37C396.901,528.37 396.9,528.37 396.9,528.37L379.71,531.13C372.84,531.87 366.97,540 366.92,540.13C366.87,540.155 366.812,540.159 366.76,540.14Z" style="fill:rgb(242,150,129);fill-rule:nonzero;"/>
    <path d="M356.85,560.85C356.8,560.852 356.751,560.829 356.72,560.79C356.681,560.756 356.659,560.707 356.659,560.655C356.659,560.603 356.681,560.554 356.72,560.52L376.1,541.6C377.56,540.156 379.374,539.121 381.36,538.6L402.72,533.09C402.735,533.086 402.75,533.085 402.765,533.085C402.853,533.085 402.929,533.145 402.95,533.23C402.976,533.329 402.918,533.431 402.82,533.46L381.46,539C379.538,539.499 377.78,540.492 376.36,541.88L357,560.79C356.965,560.836 356.907,560.859 356.85,560.85Z" style="fill:rgb(242,150,129);fill-rule:nonzero;"/>
    <path d="M369,561.6C368.94,561.6 368.883,561.57 368.85,561.52C368.505,560.972 368.413,560.3 368.6,559.68C368.94,558.47 370.14,557.39 372.18,556.47L405.67,538.29C405.89,538.14 409.52,535.88 416.67,536.29C416.67,536.29 416.671,536.29 416.671,536.29C416.764,536.29 416.841,536.367 416.841,536.46C416.841,536.467 416.841,536.473 416.84,536.48C416.84,536.48 416.84,536.48 416.84,536.48C416.84,536.579 416.759,536.66 416.66,536.66C416.657,536.66 416.653,536.66 416.65,536.66C409.53,536.29 405.88,538.66 405.84,538.66L372.34,556.85C370.43,557.7 369.27,558.72 368.97,559.8C368.815,560.313 368.88,560.867 369.15,561.33C369.22,561.406 369.22,561.524 369.15,561.6C369.101,561.617 369.049,561.617 369,561.6Z" style="fill:rgb(242,150,129);fill-rule:nonzero;"/>
    <path d="M488.19,309.54C482.89,323.15 472.77,326.32 472.77,326.32C452.69,334.12 441.77,319.11 441.77,319.11C441.77,319.11 465.39,336.11 482.83,315C486.42,309.904 489.219,304.294 491.13,298.36C493.041,292.426 489.91,305.59 488.19,309.54Z" style="fill:rgb(242,150,129);fill-rule:nonzero;"/>
    <path d="M434.88,345.78C435.505,348.302 436.348,350.764 437.4,353.14C438.452,355.516 448.31,337.21 455.21,332.06C462.766,340.072 468.429,349.679 471.78,360.17C475.131,370.661 484.11,351.83 487.78,338.68C483.838,344.858 479.036,350.444 473.52,355.27C468.004,360.096 472.52,344.43 455.84,328.14L455.08,327.92C455.08,327.92 442.4,330.9 434.88,345.78Z" style="fill-opacity:0.2;fill-rule:nonzero;"/>
    <path d="M398.34,487C398.34,487 412.82,384.76 430.63,342.5C430.63,342.5 426.39,331.93 431.33,316.9C422.541,336.633 416.054,357.312 412,378.53C407.946,399.748 401.1,432.42 400.07,462.41L398.34,487Z" style="fill-opacity:0.2;fill-rule:nonzero;"/>
    <path d="M191.71,560.28L150.51,456.53C149.801,454.745 149.436,452.841 149.436,450.921C149.436,442.877 155.826,436.156 163.86,435.75L265.86,430.57C283.585,429.666 299.876,440.71 305.6,457.51L341.53,562.86C342.996,567.234 345.883,570.994 349.73,573.54C351.768,574.874 354.011,575.864 356.37,576.47L215.56,576.47C205.066,576.471 195.583,570.033 191.71,560.28Z" style="fill:rgb(12,34,59);fill-rule:nonzero;"/>
    <path d="M268.77,430.55L289.77,429.9C299.92,429.688 309.115,436.068 312.47,445.65L353.75,563.54L459.45,563.54C462.961,563.54 465.85,566.429 465.85,569.94C465.85,569.943 465.85,569.947 465.85,569.95C465.85,573.457 462.967,576.345 459.46,576.35L356.35,576.47C349.436,574.72 343.85,569.598 341.51,562.86L305.58,457.51C305.58,457.51 298.38,432.06 268.77,430.55Z" style="fill:rgb(12,34,59);fill-rule:nonzero;"/>
    <path d="M268.77,430.55L289.77,429.9C299.92,429.688 309.115,436.068 312.47,445.65L353.75,563.54L459.45,563.54C462.961,563.54 465.85,566.429 465.85,569.94C465.85,569.943 465.85,569.947 465.85,569.95C465.85,573.457 462.967,576.345 459.46,576.35L356.35,576.47C349.436,574.72 343.85,569.598 341.51,562.86L305.58,457.51C305.58,457.51 298.38,432.06 268.77,430.55Z" style="fill-opacity:0.2;fill-rule:nonzero;"/>
    <circle cx="247.01" cy="508.28" r="10.85" style="fill-opacity:0.2;"/>
    <path d="M283.83,289.16C283.83,281.748 277.812,275.73 270.4,275.73L59.5,275.73C52.088,275.73 46.07,281.748 46.07,289.16L46.07,457.52C46.07,464.932 52.088,470.95 59.5,470.95L270.4,470.95C277.812,470.95 283.83,464.932 283.83,457.52L283.83,289.16Z" style="fill:rgb(230,230,230);"/>
    <path d="M255.66,311.36C249.565,311.36 244.55,306.345 244.55,300.25C244.55,294.155 249.565,289.14 255.66,289.14C261.755,289.14 266.77,294.155 266.77,300.25C266.77,300.253 266.77,300.257 266.77,300.26C266.765,306.351 261.751,311.36 255.66,311.36ZM255.66,289.65C255.657,289.65 255.653,289.65 255.65,289.65C249.83,289.65 245.04,294.44 245.04,300.26C245.04,306.08 249.83,310.87 255.65,310.87C261.47,310.87 266.26,306.08 266.26,300.26C266.255,294.445 261.475,289.661 255.66,289.65Z" style="fill:rgb(101,128,236);fill-rule:nonzero;"/>
    <rect x="121.73" y="334.44" width="31.37" height="31.49" style="fill:rgb(101,128,236);"/>
    <rect x="163.76" y="334.44" width="78.04" height="11.17" style="fill:rgb(204,204,204);"/>
    <rect x="163.76" y="354.77" width="102.25" height="11.17" style="fill:rgb(101,128,236);fill-opacity:0.25;"/>
    <rect x="121.48" y="391.66" width="31.37" height="31.49" style="fill:rgb(101,128,236);"/>
    <rect x="163.51" y="391.66" width="78.04" height="11.17" style="fill:rgb(204,204,204);"/>
    <rect x="163.51" y="411.98" width="102.25" height="11.17" style="fill:rgb(101,128,236);fill-opacity:0.25;"/>
    <rect x="121.48" y="437.83" width="144.54" height="20.95" style="fill:rgb(101,128,236);fill-opacity:0.25;"/>
    <path d="M275.42,323L119.42,323C119.283,323 119.17,322.887 119.17,322.75C119.17,322.613 119.283,322.5 119.42,322.5L275.42,322.5C275.557,322.5 275.67,322.613 275.67,322.75C275.67,322.887 275.557,323 275.42,323Z" style="fill:rgb(204,204,204);fill-rule:nonzero;"/>
    <path d="M275,378.11L119,378.11C118.879,378.086 118.791,377.979 118.791,377.855C118.791,377.731 118.879,377.624 119,377.6L275,377.6C275.017,377.597 275.034,377.595 275.051,377.595C275.193,377.595 275.311,377.712 275.311,377.855C275.311,377.998 275.193,378.115 275.051,378.115C275.034,378.115 275.017,378.113 275,378.11Z" style="fill:rgb(204,204,204);fill-rule:nonzero;"/>
    <path d="M147.7,528.79L147.7,554.26C147.703,554.417 147.705,554.574 147.705,554.731C147.705,566.915 137.679,576.941 125.495,576.941C113.311,576.941 103.285,566.915 103.285,554.731C103.285,554.574 103.287,554.417 103.29,554.26L103.29,528.79L147.7,528.79Z" style="fill:rgb(12,34,59);fill-rule:nonzero;"/>
    <path d="M147.7,537.98L147.7,554.28C147.681,566.451 137.661,576.455 125.49,576.455C118.065,576.455 111.114,572.732 107,566.55C113.38,567.33 137.41,568.11 147.7,537.98Z" style="fill-opacity:0.2;fill-rule:nonzero;"/>
    <path d="M104.68,561.1L102.88,561.1C96.246,560.911 90.891,555.402 90.891,548.765C90.891,542.128 96.246,536.619 102.88,536.43L103.6,536.43L103.6,554.28C103.61,556.461 103.947,558.629 104.6,560.71L104.68,561.1ZM102.88,537.1C96.588,537.284 91.512,542.51 91.512,548.805C91.512,555.1 96.588,560.326 102.88,560.51L103.88,560.51C103.3,558.491 103.007,556.401 103.01,554.3L103.01,537.1L102.88,537.1Z" style="fill:rgb(12,34,59);fill-rule:nonzero;"/>
    <path d="M45.7,580.61L594.86,580.61L594.86,592.87C594.86,592.883 594.86,592.897 594.86,592.91C594.86,600.64 588.5,607 580.77,607L45.7,607L45.7,580.61Z" style="fill:rgb(158,160,163);fill-rule:nonzero;"/>
    <path d="M839.89,583.805C839.89,579.409 836.321,575.84 831.925,575.84L594.415,575.84C590.019,575.84 586.45,579.409 586.45,583.805C586.45,588.201 590.019,591.77 594.415,591.77L831.925,591.77C836.321,591.77 839.89,588.201 839.89,583.805Z" style="fill:rgb(158,160,163);"/>
    <path d="M835.88,519.35L835.88,527.2C835.88,553.883 813.923,575.84 787.24,575.84L770.84,575.84C744.157,575.84 722.2,553.883 722.2,527.2L722.2,519.35C722.2,517.852 723.432,516.62 724.93,516.62L833.15,516.62C834.276,516.625 835.29,517.321 835.7,518.37C835.816,518.684 835.876,519.015 835.88,519.35Z" style="fill:rgb(12,34,59);fill-rule:nonzero;"/>
    <path d="M835.88,519.35L835.88,527.2C835.88,553.883 813.923,575.84 787.24,575.84L770.84,575.84C760.179,575.846 749.808,572.33 741.35,565.84C757.35,569.19 812.35,575.95 835.7,518.33C835.82,518.657 835.881,519.002 835.88,519.35Z" style="fill-opacity:0.2;fill-rule:nonzero;"/>
    <g opacity="0.2">
        <rect x="725.97" y="525.03" width="106.65" height="0.5"/>
    </g>
    <g opacity="0.2">
        <rect x="728.54" y="530.92" width="100.87" height="0.5"/>
    </g>
    <path d="M734.37,516.62L734.37,476.26C734.349,473.896 735.467,471.661 737.37,470.26C739.137,469.04 741.311,468.552 743.43,468.9C745.549,469.248 748.43,468.78 750.96,476.06L750.96,416.62C750.987,408.595 757.595,402.005 765.62,402C773.668,402 780.29,408.622 780.29,416.67L780.29,516.59L734.37,516.62Z" style="fill:rgb(101,128,236);fill-rule:nonzero;"/>
    <path d="M794.41,426.79C802.151,426.79 808.52,433.159 808.52,440.9L808.52,516.49L780.29,516.49L780.29,440.9C780.29,433.159 786.659,426.79 794.4,426.79C794.403,426.79 794.407,426.79 794.41,426.79Z" style="fill:rgb(101,128,236);fill-rule:nonzero;"/>
    <path d="M794.41,426.79C802.151,426.79 808.52,433.159 808.52,440.9L808.52,516.49L780.29,516.49L780.29,440.9C780.29,433.159 786.659,426.79 794.4,426.79C794.403,426.79 794.407,426.79 794.41,426.79Z" style="fill-opacity:0.2;fill-rule:nonzero;"/>
    <path d="M816.37,459.53C820.671,459.53 824.21,463.069 824.21,467.37L824.21,516.49L808.52,516.49L808.52,467.38C808.52,467.377 808.52,467.373 808.52,467.37C808.52,463.069 812.059,459.53 816.36,459.53C816.363,459.53 816.367,459.53 816.37,459.53Z" style="fill:rgb(101,128,236);fill-rule:nonzero;"/>
    <g opacity="0.2">
        <rect x="742.28" y="477.22" width="0.5" height="38.89"/>
    </g>
    <g opacity="0.2">
        <rect x="765.36" y="418.32" width="0.5" height="98.36"/>
    </g>
    <g opacity="0.2">
        <rect x="815.93" y="469.13" width="0.5" height="47.55"/>
    </g>
    <path d="M619.45,378.17L619.39,378.17C619.291,378.137 619.237,378.029 619.27,377.93C630.39,345.3 616.39,321.42 602.7,307.13C596.117,300.383 588.728,294.471 580.7,289.53C577.244,287.364 573.657,285.414 569.96,283.69C551.69,274.74 532.71,256.1 532.52,255.91C532.452,255.837 532.452,255.723 532.52,255.65C532.554,255.611 532.603,255.589 532.655,255.589C532.707,255.589 532.756,255.611 532.79,255.65C532.98,255.83 551.91,274.43 570.12,283.35C573.831,285.072 577.428,287.029 580.89,289.21C588.959,294.156 596.386,300.081 603,306.85C611.76,315.99 617.83,325.94 621,336.43C625,349.55 624.55,363.55 619.62,378.04C619.595,378.114 619.528,378.166 619.45,378.17Z" style="fill:rgb(12,34,59);fill-rule:nonzero;"/>
    <path d="M491.6,221.15L491.1,235.33L491.1,240.33C483.81,282.06 455,285.51 455,285.51C428.59,289.76 416.57,273.15 411.47,261.51C409.194,256.366 408.012,250.805 408,245.18L408,205.42L417.79,204.97C417.79,204.97 421.79,183.64 435.1,173.35C435.1,173.35 429.33,188.28 428.33,203.35L449.78,203.35C449.78,203.35 451.54,178.64 448.15,169.98C448.28,170.13 456.57,179.57 458.44,202.22L477.01,202.22C477.01,202.22 477.63,188.55 471.11,178.89C471.11,178.89 476.88,183.89 480.39,197.21C480.43,197.19 486.58,215.38 491.6,221.15Z" style="fill:rgb(249,180,153);fill-rule:nonzero;"/>
    <path d="M491.6,221.15L491.6,222.25L491.53,222.39C482.65,218.87 476.71,207.98 476.71,207.98L458.27,208.48L453.87,198.32L453.37,208.73L425.52,209.11C424.823,206.157 424.758,203.09 425.33,200.11C422.522,202.77 420.675,206.288 420.08,210.11L408,210.11L408,205.38L417.79,204.93C417.79,204.93 421.79,183.6 435.1,173.31C435.1,173.31 429.33,188.24 428.33,203.31L449.78,203.31C449.78,203.31 451.54,178.6 448.15,169.94C448.28,170.09 456.57,179.53 458.44,202.18L477.01,202.18C477.01,202.18 477.63,188.51 471.11,178.85C471.11,178.85 476.88,183.85 480.39,197.17C480.43,197.19 486.58,215.38 491.6,221.15Z" style="fill:rgb(242,150,129);fill-rule:nonzero;"/>
    <path d="M605.15,379.24C565.62,312.99 491.15,302.08 491.15,302.08L491.15,235.33L491.65,221.15C486.65,215.38 480.48,197.15 480.48,197.15C476.97,183.85 471.2,178.83 471.2,178.83C477.72,188.49 477.1,202.16 477.1,202.16L458.48,202.16C456.61,179.51 448.32,170.07 448.19,169.92C451.58,178.58 449.82,203.29 449.82,203.29L428.37,203.29C429.37,188.24 435.14,173.29 435.14,173.29C421.84,183.64 417.83,205 417.83,205L408.04,205.45L396.12,206C399.01,180 409.17,168.48 409.17,168.48C394.96,180.61 392.74,200.76 392.41,205.48C392.394,205.764 392.273,206.031 392.07,206.23C391.875,206.437 391.613,206.568 391.33,206.6C391.287,206.605 391.243,206.607 391.199,206.607C390.536,206.607 389.989,206.061 389.989,205.397C389.989,205.385 389.99,205.372 389.99,205.36C390.63,177.22 414.56,160.7 414.56,160.7C430.87,146.64 444.42,152.29 444.42,152.29C432.76,139.74 445.3,131.46 445.3,131.46C442.3,146.27 452.58,150.78 452.58,150.78C509.16,130.08 518.45,207.87 518.45,207.87L520.33,228.32C522.08,246.64 542.2,267.75 554.33,278.91C558.459,282.696 562.825,286.217 567.4,289.45C583.58,300.94 596.14,318.66 596.14,318.66C623.21,351.76 605.15,379.24 605.15,379.24Z" style="fill:rgb(12,34,59);fill-rule:nonzero;"/>
    <path d="M479.37,223.22L494.37,219.06C494.472,219.033 494.577,219.019 494.682,219.019C495.282,219.019 495.796,219.466 495.88,220.06C495.973,220.657 495.602,221.236 495.02,221.4L480.37,225.62L479.37,223.22Z" style="fill:rgb(101,128,236);fill-rule:nonzero;"/>
    <ellipse cx="498.63" cy="233.51" rx="13.8" ry="13.99" style="fill:rgb(249,180,153);"/>
    <path d="M455.09,327.92C444.616,331.488 436.441,339.835 433.09,350.38C422.09,323.91 436.24,308.03 436.24,308.03C438.608,317.491 445.77,325.048 455.09,327.92Z" style="fill:rgb(101,128,236);fill-rule:nonzero;"/>
    <path d="M455.09,327.92C444.616,331.488 436.441,339.835 433.09,350.38C422.09,323.91 436.24,308.03 436.24,308.03C438.608,317.491 445.77,325.048 455.09,327.92Z" style="fill:white;fill-opacity:0.4;fill-rule:nonzero;"/>
    <path d="M455.85,328.14C455.85,328.14 471.78,343.35 473.53,355.27C473.53,355.27 487.37,343.19 490.8,332.27C490.8,332.27 495.36,315.27 490.34,301.74C490.34,301.7 486.6,332.13 455.85,328.14Z" style="fill:rgb(101,128,236);fill-rule:nonzero;"/>
    <path d="M455.85,328.14C455.85,328.14 471.78,343.35 473.53,355.27C473.53,355.27 487.37,343.19 490.8,332.27C490.8,332.27 495.36,315.27 490.34,301.74C490.34,301.7 486.6,332.13 455.85,328.14Z" style="fill:white;fill-opacity:0.4;fill-rule:nonzero;"/>
    <path d="M618.07,583.805C618.07,579.409 614.501,575.84 610.105,575.84L33.835,575.84C29.439,575.84 25.87,579.409 25.87,583.805C25.87,588.201 29.439,591.77 33.835,591.77L610.105,591.77C614.501,591.77 618.07,588.201 618.07,583.805Z" style="fill:rgb(225,225,226);"/>
    <path d="M103.47,275.79L103.47,471L58.31,471C50.943,471 44.88,464.937 44.88,457.57L44.88,289.22C44.88,281.853 50.943,275.79 58.31,275.79L103.47,275.79Z" style="fill:rgb(101,128,236);fill-rule:nonzero;"/>
    <path d="M82.58,319.33C82.58,317.288 80.922,315.63 78.88,315.63L53.91,315.63C51.868,315.63 50.21,317.288 50.21,319.33C50.21,321.372 51.868,323.03 53.91,323.03L78.88,323.03C80.922,323.03 82.58,321.372 82.58,319.33Z" style="fill:white;"/>
    <circle cx="55.8" cy="289.72" r="2.95" style="fill:white;"/>
    <circle cx="64.96" cy="289.84" r="2.95" style="fill:white;"/>
    <circle cx="74.11" cy="289.97" r="2.95" style="fill:white;"/>
    <path d="M79.07,333.06L58.37,333.06C58.233,333.06 58.12,332.947 58.12,332.81C58.12,332.673 58.233,332.56 58.37,332.56L79.07,332.56C79.207,332.56 79.32,332.673 79.32,332.81C79.32,332.947 79.207,333.06 79.07,333.06Z" style="fill:white;fill-rule:nonzero;"/>
    <path d="M79,343.73L58.31,343.73C58.173,343.73 58.06,343.617 58.06,343.48C58.06,343.343 58.173,343.23 58.31,343.23L79,343.23C79.137,343.23 79.25,343.343 79.25,343.48C79.25,343.617 79.137,343.73 79,343.73Z" style="fill:white;fill-rule:nonzero;"/>
    <path d="M79,354L58.31,354C58.173,354 58.06,353.887 58.06,353.75C58.06,353.613 58.173,353.5 58.31,353.5L79,353.5C79.137,353.5 79.25,353.613 79.25,353.75C79.25,353.887 79.137,354 79,354Z" style="fill:white;fill-rule:nonzero;"/>
    <g opacity="0.2">
        <rect x="794.66" y="440.4" width="0.13" height="75.91"/>
    </g>
    <g transform="matrix(0.00628314,-0.99998,0.99998,0.00628314,183.74,640.82)">
        <ellipse cx="414.32" cy="227.95" rx="17.43" ry="17.5" style="fill:white;fill-opacity:0.32;"/>
    </g>
    <g transform="matrix(0.00628314,-0.99998,0.99998,0.00628314,230.86,688.24)">
        <ellipse cx="461.75" cy="227.95" rx="17.14" ry="17.2" style="fill:white;fill-opacity:0.32;"/>
    </g>
    <path d="M461.74,208.86C452.253,208.847 444.13,215.921 442.84,225.32C438.84,222.06 433.84,224.65 433.2,225.03C431.755,215.828 423.745,208.978 414.43,208.978C404.007,208.978 395.43,217.555 395.43,227.978C395.43,238.401 404.007,246.978 414.43,246.978C424.833,246.978 433.401,238.433 433.43,228.03C438.08,224.2 442.72,227.9 442.72,227.9C442.72,227.923 442.72,227.947 442.72,227.97C442.72,238.431 451.328,247.04 461.79,247.04C472.251,247.04 480.86,238.431 480.86,227.97C480.86,217.509 472.251,208.9 461.79,208.9L461.74,208.86ZM414.31,244.61C405.21,244.577 397.74,237.08 397.74,227.98C397.74,218.857 405.247,211.35 414.37,211.35C423.493,211.35 431,218.857 431,227.98C431,227.987 431,227.993 431,228C430.978,237.119 423.469,244.61 414.35,244.61C414.337,244.61 414.323,244.61 414.31,244.61ZM461.74,244.49C452.64,244.457 445.17,236.96 445.17,227.86C445.17,218.737 452.677,211.23 461.8,211.23C470.923,211.23 478.43,218.737 478.43,227.86C478.414,236.988 470.898,244.49 461.77,244.49C461.76,244.49 461.75,244.49 461.74,244.49Z" style="fill:rgb(101,128,236);fill-rule:nonzero;"/>
    <path d="M579.66,487.11C577.087,486.57 574.6,485.678 572.27,484.46C565.404,480.72 559.992,474.776 556.91,467.59L547.81,434.32L548.94,473.08C549.31,502.82 520.33,512.23 520.33,512.23L457.22,534.06C480.43,552 467,576.47 467,576.47L487.78,576.47C501.91,546.1 479.54,528.93 479.54,528.93C512.92,514.5 566.37,502.2 566.37,502.2C595.22,494.2 607.77,500.32 607.77,500.32C599.473,493.924 589.879,489.416 579.66,487.11Z" style="fill-opacity:0.2;fill-rule:nonzero;"/>
    <circle cx="482.13" cy="566.62" r="3.07" style="fill:rgb(12,34,59);"/>
</svg>
